<?xml version="1.0" standalone="no"?>
<!DOCTYPE svg PUBLIC "-//W3C//DTD SVG 20010904//EN"
 "http://www.w3.org/TR/2001/REC-SVG-20010904/DTD/svg10.dtd">
<svg version="1.0" xmlns="http://www.w3.org/2000/svg"
 width="512.000000pt" height="512.000000pt" viewBox="0 0 512.000000 512.000000"
 preserveAspectRatio="xMidYMid meet">
<metadata>
Created by potrace 1.14, written by Peter Selinger 2001-2017
</metadata>
<g transform="translate(0.000000,512.000000) scale(0.100000,-0.100000)"
fill="#000000" stroke="none">
<path d="M1779 4993 c-24 -7 -51 -16 -59 -20 -8 -3 -20 -7 -26 -8 -24 -6 -204
-177 -278 -265 -16 -19 -66 -75 -110 -125 -45 -49 -97 -107 -116 -129 -19 -21
-51 -56 -70 -76 -19 -21 -62 -68 -95 -105 -33 -37 -77 -86 -97 -109 -21 -23
-38 -47 -38 -53 0 -7 -4 -13 -9 -13 -4 0 -23 -30 -42 -66 -32 -65 -33 -71 -33
-178 1 -61 6 -145 12 -186 6 -41 10 -82 10 -90 -1 -26 14 -185 17 -191 4 -5
17 -167 20 -244 1 -32 -5 -48 -31 -79 -66 -78 -103 -180 -99 -276 4 -124 47
-215 146 -310 51 -49 48 -38 64 -225 3 -33 7 -82 10 -110 3 -27 8 -81 11 -120
5 -65 10 -110 14 -110 1 0 3 -25 5 -55 5 -76 16 -217 20 -265 2 -22 6 -76 9
-120 3 -44 8 -96 11 -115 5 -36 -2 -48 -81 -139 -54 -62 -74 -113 -70 -173 5
-64 26 -131 49 -158 9 -11 17 -24 17 -29 0 -15 83 -92 114 -105 32 -14 116
-90 116 -105 0 -12 87 -101 98 -101 5 0 15 -6 21 -13 6 -8 29 -20 52 -27 27
-9 53 -29 77 -59 122 -151 220 -244 293 -279 79 -37 130 -43 334 -42 88 0 410
2 715 3 588 3 567 2 659 51 37 20 167 147 221 216 64 82 95 108 143 121 26 6
47 15 47 20 0 4 9 11 20 14 30 9 95 80 115 124 12 27 28 43 58 56 48 21 56 27
107 77 36 35 96 143 104 185 8 40 9 89 2 108 -26 70 -23 65 -107 158 l-57 61
5 61 c2 33 5 85 8 115 2 30 4 55 5 55 1 0 3 25 5 55 2 30 7 80 11 110 4 30 8
75 9 100 2 25 6 52 9 60 3 8 4 23 3 33 -2 10 0 44 5 75 4 32 10 89 14 127 8
94 12 142 19 190 3 22 7 61 9 87 4 50 23 78 52 78 10 0 15 2 12 5 -3 3 10 21
28 41 34 35 83 112 88 136 2 7 6 20 9 28 17 40 28 136 18 155 -3 6 -7 21 -9
34 -5 41 -67 165 -96 194 -23 23 -28 37 -28 80 0 49 8 181 17 257 3 19 7 62 9
95 3 33 8 71 10 85 3 14 8 67 11 118 2 51 6 96 8 100 5 10 0 119 -7 164 -7 45
-53 138 -68 138 -6 0 -9 3 -5 6 3 3 -5 18 -18 32 -13 15 -33 38 -45 52 -12 14
-60 67 -108 119 -118 127 -138 149 -207 226 -33 37 -79 88 -102 112 -24 25
-58 63 -75 85 -58 71 -184 195 -224 220 -21 13 -61 33 -89 43 -47 18 -88 19
-791 20 -567 0 -752 -3 -785 -12z"/>
</g>
</svg>
