<svg xmlns="http://www.w3.org/2000/svg" viewBox="0 0 512 512"><path d="M 249.554 14.392 C 183.654 14.392 124.354 37.007 81.904 72.631 C 39.404 108.252 14.204 156.4 14.204 208.68 C 14.204 260.961 39.404 308.986 81.904 344.731 C 124.254 380.355 183.654 402.969 249.554 402.969 C 315.354 402.969 374.854 380.355 417.354 344.731 C 459.654 308.986 484.954 260.961 484.954 208.68 C 484.954 156.4 459.654 108.252 417.354 72.631 C 374.854 36.994 315.454 14.392 249.554 14.392 Z M 252.554 40.168 L 252.354 62.903 C 246.354 62.782 240.354 63.146 234.354 63.511 L 233.154 40.775 C 239.654 40.35 246.054 40.168 252.554 40.168 Z M 271.554 40.897 C 277.954 41.347 284.454 42.027 290.854 43.073 L 288.554 65.578 C 282.654 64.362 277.254 64.241 270.654 63.511 L 271.554 40.897 Z M 213.954 42.842 L 216.254 65.457 C 210.254 66.185 204.254 67.524 198.254 68.738 L 194.954 46.367 C 201.554 44.896 208.454 43.778 213.954 42.842 Z M 310.054 46.721 C 316.354 48.277 322.654 49.844 328.854 52.083 L 324.054 73.967 C 318.254 72.143 312.254 70.564 306.354 69.226 L 310.054 46.721 Z M 180.554 73.359 C 174.654 75.305 168.554 77.493 163.254 79.561 L 156.954 58.04 C 162.954 55.729 170.254 52.934 176.254 50.952 C 177.854 58.283 179.154 66.185 180.554 73.359 Z M 347.254 58.891 C 353.354 61.444 359.554 64.119 365.454 67.28 L 358.054 88.192 C 352.554 85.153 346.854 82.843 341.254 80.289 L 347.254 58.891 Z M 139.254 66.308 L 146.554 87.098 C 140.454 90.502 135.754 92.935 130.354 96.46 L 121.654 76.277 C 128.054 72.022 132.854 69.59 139.254 66.308 Z M 382.854 77.493 L 382.954 77.615 C 388.854 81.627 394.954 85.761 399.754 89.773 L 389.454 108.74 C 384.554 104.727 379.454 101.081 374.254 97.676 L 374.154 97.555 C 377.254 90.989 379.954 84.179 382.854 77.493 Z M 104.854 88.192 C 108.154 94.637 111.454 100.958 114.954 107.28 C 109.954 111.171 105.254 115.426 100.654 119.926 L 88.904 102.296 C 95.454 93.786 101.754 89.773 104.854 88.192 Z M 415.554 104.12 C 420.554 109.469 425.654 114.575 430.054 120.777 L 416.254 136.095 C 411.954 130.867 407.654 125.519 403.554 121.505 L 415.554 104.12 Z M 87.804 134.393 C 83.714 139.744 79.784 145.579 76.804 150.686 L 61.604 137.433 C 66.404 130.016 69.684 124.424 74.504 118.588 C 78.124 123.33 83.514 129.409 87.804 134.393 Z M 260.054 123.816 C 273.454 152.631 285.154 182.905 297.354 212.571 L 260.054 158.954 L 232.654 198.224 L 216.954 185.823 C 231.354 165.155 245.654 144.485 260.054 123.816 Z M 118.354 138.162 C 152.154 158.832 184.354 187.404 216.354 212.449 L 148.054 177.921 L 174.454 281.752 L 260.054 289.411 L 345.954 281.752 L 336.554 305.34 L 260.054 312.147 L 160.454 303.271 L 118.354 138.162 Z M 402.554 138.284 C 384.754 185.093 365.954 231.538 347.454 277.982 L 372.954 177.798 L 315.754 206.492 L 307.254 186.067 L 402.554 138.284 Z M 442.454 139.864 C 446.154 146.795 449.554 154.455 452.354 161.263 L 435.354 170.747 C 433.054 164.303 429.954 158.466 427.054 152.51 L 442.454 139.864 Z M 51.304 158.954 L 68.304 168.437 C 65.814 174.637 64.124 181.203 62.704 187.89 L 44.734 182.054 C 46.484 172.449 48.294 166.491 51.304 158.954 Z M 458.654 185.216 C 459.754 193.969 460.754 202.236 460.754 210.382 L 442.054 210.018 C 441.654 203.087 441.454 195.915 440.354 190.078 C 446.454 188.498 452.554 186.795 458.654 185.216 Z M 60.604 207.829 C 60.704 214.882 61.294 221.812 62.204 227.769 L 43.904 232.511 C 43.014 224 42.244 215.124 42.204 207.343 C 46.704 207.465 54.954 207.708 60.604 207.829 Z M 440.154 230.322 L 458.354 235.064 C 456.854 243.452 454.254 252.208 451.754 258.894 L 434.754 249.411 C 437.054 242.724 438.854 236.158 440.154 230.322 Z M 67.104 247.465 C 69.584 253.787 72.304 259.988 75.104 265.46 L 59.604 278.104 C 55.414 270.323 52.524 263.514 49.504 256.219 C 54.904 253.18 61.134 250.14 67.104 247.465 Z M 426.254 267.526 L 441.754 280.292 C 437.854 287.222 433.154 294.154 429.254 299.502 C 424.454 293.91 420.254 289.047 415.554 283.818 L 415.554 283.697 C 419.654 278.225 423.354 272.511 426.254 267.526 Z M 98.254 296.706 L 86.304 314.093 C 81.094 308.865 75.904 302.663 71.804 297.314 L 85.604 281.994 C 89.954 286.98 94.254 292.694 98.254 296.706 Z M 15.104 292.451 C 16.804 308.135 20.704 323.211 26.604 337.559 L 26.604 312.877 C 22.404 306.312 18.604 299.502 15.104 292.451 Z M 483.954 292.451 C 479.554 301.57 474.354 310.324 468.654 318.59 L 468.654 346.19 C 476.754 329.169 481.954 311.175 483.954 292.451 Z M 402.854 298.286 L 414.554 315.916 C 408.454 321.874 404.654 325.278 398.754 330.02 L 388.454 311.053 C 393.454 307.163 398.154 302.786 402.854 298.286 Z M 112.354 309.593 C 117.254 313.727 122.454 317.376 127.654 320.901 L 118.654 340.84 C 112.854 337.193 107.454 332.695 101.954 328.562 L 112.354 309.593 Z M 373.154 321.995 L 381.854 342.177 C 376.154 345.946 370.354 349.108 364.354 352.269 L 356.954 331.357 C 362.654 328.562 368.454 325.034 373.154 321.995 Z M 143.554 330.385 C 148.954 333.424 154.754 335.613 160.354 338.287 L 154.354 359.807 C 148.254 357.376 142.254 354.214 136.254 351.297 L 143.554 330.385 Z M 45.304 337.922 L 45.304 371.722 C 50.404 378.896 56.004 385.947 62.104 392.514 L 62.104 355.309 C 56.204 349.717 50.604 344.002 45.304 337.922 Z M 340.154 339.138 L 346.254 360.658 C 339.954 363.211 333.154 365.4 327.654 367.345 L 322.854 345.339 C 329.054 343.638 334.754 340.962 340.154 339.138 Z M 449.954 342.177 C 444.654 347.893 439.154 353.486 433.254 358.714 L 433.254 396.526 C 439.254 390.325 444.854 383.759 449.954 376.95 L 449.954 342.177 Z M 177.554 344.731 C 183.354 346.556 189.254 348.135 195.154 349.595 L 191.654 371.966 C 185.254 370.506 179.054 368.561 172.854 366.616 L 177.554 344.731 Z M 305.254 350.081 L 308.854 372.452 C 302.254 373.789 295.454 375.248 289.754 375.978 L 287.454 353.486 C 293.854 352.148 299.454 351.053 305.254 350.081 Z M 213.054 353.12 C 219.054 354.093 225.054 354.823 231.154 355.309 L 229.854 377.924 C 223.454 377.436 217.054 376.708 210.654 375.735 L 213.054 353.12 Z M 269.454 355.43 L 270.454 378.167 C 263.654 378.775 256.154 379.139 249.054 378.775 L 249.154 356.16 C 255.954 356.16 262.654 355.917 269.454 355.43 Z M 80.804 370.993 L 80.804 410.508 C 87.204 415.979 94.354 421.328 100.254 425.34 L 100.254 384.368 C 93.504 380.234 87.004 375.735 80.804 370.993 Z M 414.554 373.789 C 408.254 378.409 401.754 382.665 394.954 386.677 L 394.954 427.894 C 401.854 423.395 408.354 418.653 414.554 413.669 L 414.554 373.789 Z M 118.954 394.944 L 118.954 436.891 C 125.654 440.537 132.654 444.065 139.854 447.226 L 139.854 404.55 C 132.754 401.632 125.754 398.47 118.954 394.944 Z M 376.254 396.89 C 369.454 400.172 362.454 403.213 355.354 406.008 L 355.354 448.806 C 362.554 445.767 369.554 442.483 376.254 438.958 L 376.254 396.89 Z M 158.554 411.359 L 158.554 454.521 C 165.154 456.83 171.954 458.897 178.854 460.72 L 178.854 417.194 C 171.954 415.492 165.154 413.547 158.554 411.359 Z M 336.654 412.574 C 330.054 414.641 323.254 416.464 316.354 418.045 L 316.354 461.572 C 323.254 459.87 330.054 458.046 336.654 455.857 L 336.654 412.574 Z M 197.554 421.084 L 197.554 464.854 C 204.354 466.192 211.354 467.164 218.454 468.015 L 218.454 424.003 C 211.354 423.273 204.354 422.301 197.554 421.084 Z M 297.854 421.694 C 290.454 422.909 283.054 423.882 275.454 424.489 L 275.454 468.503 C 283.054 467.772 290.454 466.8 297.854 465.585 L 297.854 421.694 Z M 237.154 425.34 L 237.154 469.354 C 244.154 469.718 249.654 469.597 256.654 469.597 L 256.654 425.584 C 250.154 425.584 242.854 425.705 237.154 425.34 Z"/></svg>
