<svg xmlns="http://www.w3.org/2000/svg" viewBox="0 0 512 512"><path d="M 248.726 5.774 C 223.168 5.77 202.162 25.982 202.167 50.57 C 202.167 61.349 184.867 94.562 173.303 110.265 C 154.098 136.345 138.465 179.646 121.23 241.559 C 106.143 295.742 85.424 322.235 70.258 341.41 C 55.094 360.585 46.355 370.172 46.358 401.817 C 46.361 406.77 49.263 412.167 58.771 418.841 C 68.277 425.516 83.593 432.118 102.754 437.503 C 141.074 448.274 194.591 454.43 250.196 454.441 C 278.705 454.447 306.626 452.814 332.235 449.8 L 332.235 449.975 C 350.075 448.499 381.257 444.459 407.75 435.428 C 416.274 432.52 424.339 429.171 431.467 424.768 C 435.307 422.821 438.742 420.881 441.577 418.889 C 451.075 412.218 453.988 406.828 453.988 401.865 C 453.982 370.22 445.258 360.637 430.088 341.456 C 414.915 322.277 394.172 295.791 379.07 241.608 C 361.816 179.689 346.21 136.397 326.997 110.315 C 314.9 93.89 302.149 83.66 285.173 78.342 C 291.511 70.687 295.332 61.022 295.329 50.57 C 295.326 25.98 274.283 5.777 248.726 5.773 L 248.726 5.774 Z M 248.726 32.218 C 259.429 32.218 267.845 40.275 267.845 50.571 C 267.845 60.862 259.429 68.925 248.726 68.922 C 238.021 68.919 229.653 60.862 229.65 50.569 C 229.65 40.277 238.022 32.215 248.726 32.218 Z M 262.286 93.377 C 313.197 107.794 335.177 184.913 347.771 237.093 C 369.819 328.45 414.914 354.516 425.765 394.52 C 425.284 395.415 424.292 396.339 422.685 397.927 C 418.766 401.804 409.72 406.723 398.557 410.53 C 387.723 414.223 375.024 417.059 362.983 419.196 C 360.437 365.389 313.322 343.418 314.079 267.118 C 314.966 177.907 288.798 120.867 255.985 94.79 C 258.144 94.46 260.229 93.983 262.283 93.375 L 262.286 93.377 Z M 90.48 461.516 C 92.272 479.539 108.046 493.619 127.249 493.622 C 141.106 493.622 153.195 486.301 159.517 475.446 C 136.006 472.461 114.184 468.258 95.078 462.888 C 93.518 462.449 92.004 461.968 90.481 461.515 L 90.48 461.516 Z"/></svg>
